<svg fill="none" xmlns="http://www.w3.org/2000/svg" viewBox="0 0 160 48"><g clip-path="url(#a)"><path d="M7.2 16.4V12c0-2.2.5-4.3 1.5-6a11 11 0 0 1 4.1-4.4c1.8-1 4-1.6 6.4-1.6 1.6 0 3 .2 4.1.7 1.3.5 2.5 1.2 3.6 2.1l-4.8 6c-.4-.3-.9-.5-1.3-.6-.5-.2-1-.3-1.6-.3-1.1 0-2 .4-2.6 1-.6.7-1 1.6-1 2.8v4.7h19.7V48h-8.5V24H15.7v24H7.2V24H0v-7.6h7.2ZM42.8 48V.7h8.4V48h-8.4ZM79 48V29.4c0-1.9-.6-3.3-1.7-4.3a5.9 5.9 0 0 0-4.2-1.6c-1.1 0-2.2.3-3 .8-1 .4-1.7 1-2.2 2a6 6 0 0 0-.8 3V48h-8.4V16.4H67v2.8a12.4 12.4 0 0 1 8.7-3.4 11.7 11.7 0 0 1 9.6 4.7 12.8 12.8 0 0 1 10.1-4.8c2.3 0 4.4.6 6.3 1.6 1.8 1 3.3 2.3 4.3 4.1 1.1 1.9 1.7 4 1.7 6.6v20h-8.5V29.4c0-1.9-.6-3.3-1.7-4.3a6.6 6.6 0 0 0-7.2-.9c-1 .5-1.7 1.2-2.2 2a6 6 0 0 0-.8 3.1V48H79ZM114.6 48V16.4h8.5V48h-8.5ZM144 39.3l-6 8.7h-10l11-15.8-11-15.8h10l6 8.6 6-8.6h10l-11 15.8L160 48h-10l-6-8.7Z" fill="#FFFCF2"/><path d="M115.5 12.9c.9.9 2 1.4 3.4 1.4s2.6-.5 3.4-1.4c1-1 1.4-2.1 1.4-3.5s-.5-2.5-1.4-3.5c-.8-1-2-1.4-3.4-1.4s-2.5.5-3.4 1.4c-1 1-1.4 2.1-1.4 3.5s.4 2.5 1.4 3.5ZM26.7 12.9c1 .9 2 1.4 3.5 1.4 1.4 0 2.5-.5 3.4-1.4 1-1 1.4-2.1 1.4-3.5s-.5-2.5-1.4-3.5c-.9-1-2-1.4-3.4-1.4s-2.6.5-3.5 1.4c-.9 1-1.3 2.1-1.3 3.5s.4 2.5 1.3 3.5Z" fill="#EB5E28"/></g><defs><clipPath id="a"><path fill="#fff" d="M0 0h160v48H0z"/></clipPath></defs></svg>