<svg width="142" height="60" viewBox="0 0 142 60" fill="none" xmlns="http://www.w3.org/2000/svg">
<path d="M4.65914 24.1382V21.3114C4.65914 19.8488 4.97782 18.5409 5.61566 17.3877C6.2535 16.2063 7.14086 15.2781 8.27772 14.6031C9.44273 13.8999 10.8153 13.5483 12.3963 13.5483C13.3943 13.5483 14.2817 13.703 15.0583 14.0124C15.8627 14.3218 16.625 14.7719 17.3464 15.3625L14.2263 19.244C13.9768 19.0471 13.6996 18.9065 13.3943 18.8221C13.1171 18.7096 12.7841 18.6534 12.3963 18.6534C11.6749 18.6534 11.1068 18.8784 10.6907 19.3284C10.3024 19.7503 10.1082 20.341 10.1082 21.1004V24.1382H22.754V44.5161H17.3044V28.99H10.1082V44.5161H4.65914V28.99H6.10352e-05V24.1382H4.65914Z" fill="#FFFCF2"/>
<path d="M27.5891 44.5161V14.0124H33.0382V44.5161H27.5891Z" fill="#FFFCF2"/>
<path d="M50.9699 44.5161V32.4918C50.9699 31.3105 50.5954 30.3964 49.8464 29.7495C49.1256 29.0744 48.2244 28.7369 47.1428 28.7369C46.4215 28.7369 45.7698 28.8916 45.1878 29.201C44.6053 29.4823 44.1478 29.9042 43.8148 30.4667C43.4823 31.0293 43.3158 31.7043 43.3158 32.4918L43.3158 44.5161H37.8666V24.1382H43.3158V25.9061C43.8032 25.4235 44.3578 25.017 44.9798 24.6866C46.1443 24.0397 47.4615 23.7162 48.9314 23.7162C50.3182 23.7162 51.5796 24.0397 52.717 24.6866C53.6697 25.2052 54.4569 25.9114 55.0786 26.8053C55.7508 25.9353 56.5717 25.2431 57.542 24.7288C58.7624 24.0538 60.1211 23.7162 61.6186 23.7162C63.1161 23.7162 64.461 24.0397 65.6537 24.6866C66.8459 25.3054 67.7891 26.2054 68.4822 27.3868C69.1754 28.5681 69.5222 29.9745 69.5222 31.6058V44.5161H64.0727V32.4918C64.0727 31.3105 63.6987 30.3964 62.9496 29.7495C62.2288 29.0744 61.3276 28.7369 60.2461 28.7369C59.5524 28.7369 58.9007 28.8916 58.291 29.201C57.7085 29.4823 57.251 29.9042 56.918 30.4667C56.5873 31.0262 56.4208 31.697 56.419 32.4791V44.5161H50.9699Z" fill="#FFFCF2"/>
<path d="M73.9394 44.5161V24.1382H79.4301V44.5161H73.9394Z" fill="#FFFCF2"/>
<path d="M92.9097 38.9152L88.9996 44.5161H82.5935L89.6963 34.3122L82.5935 24.1382H89.0411L92.9097 29.6958L96.7783 24.1382H103.226L96.1232 34.3122L103.226 44.5161H96.8198L92.9097 38.9152Z" fill="#FFFCF2"/>
<g clip-path="url(#clip0_132_982)">
<path d="M135.376 40.6139L131.761 35.5189C133.016 34.7289 133.511 32.9154 132.528 31.5304L128.279 25.5417C129.117 24.6343 129.337 23.1655 128.51 21.9997L123.709 15.2322C122.641 13.7271 120.463 13.7271 119.395 15.2322L114.593 21.9997C113.766 23.1655 113.986 24.6343 114.824 25.5417L110.576 31.5304C109.593 32.9154 110.087 34.7289 111.342 35.5189L107.728 40.6139C106.435 42.4357 107.696 44.9999 109.885 44.9999H133.219C135.407 44.9999 136.668 42.4357 135.376 40.6139Z" fill="#75C71B"/>
<path d="M121.424 14.1254C121.05 14.1254 120.675 14.5006 120.429 15.2528L118.213 22.0158C117.832 23.1805 117.933 24.6486 118.32 25.5551L116.36 31.5396C115.906 32.9236 116.134 34.7364 116.713 35.5256L115.046 40.6173C114.449 42.4375 115.031 45 116.041 45H109.397C107.141 45 105.841 42.4375 107.173 40.6173L110.9 35.5256C109.605 34.7361 109.095 32.9236 110.109 31.5396L114.488 25.5551C113.625 24.6486 113.398 23.1803 114.251 22.0158L119.2 15.2528C119.751 14.5006 120.587 14.1254 121.424 14.1254Z" fill="#62A617"/>
<path d="M128.397 26.3402C127.209 27.0794 125.673 26.8996 124.685 25.9047L121.07 22.2626C120.088 21.2727 118.468 21.3722 117.612 22.4745C117.482 22.6427 117.328 22.7821 117.158 22.8904C116.866 23.0774 116.528 23.1749 116.187 23.1749C115.829 23.1749 115.468 23.068 115.154 22.8468C114.649 22.4918 114.379 21.9252 114.379 21.3504C114.379 20.9766 114.493 20.6001 114.729 20.2757L118.562 15.0003C119.162 14.1742 120.054 13.6641 121.05 13.5686C121.163 13.5575 121.279 13.5518 121.395 13.5518C122.527 13.5518 123.56 14.0792 124.228 15.0003L129.154 21.7801C129.536 22.307 129.755 22.9107 129.814 23.5244C129.923 24.6542 129.355 25.7428 128.397 26.3402Z" fill="#DAF3FE"/>
<path d="M121.356 13.6002C120.788 13.6002 120.27 14.1205 119.934 15.028L117.427 21.8087C117.303 22.1433 117.214 22.5097 117.158 22.89C116.866 23.0771 116.528 23.1746 116.187 23.1746C115.829 23.1746 115.468 23.0677 115.154 22.8465C114.649 22.4915 114.379 21.9249 114.379 21.3501C114.379 20.9763 114.493 20.5998 114.729 20.2753L118.562 14.9999C119.162 14.1739 120.054 13.6638 121.05 13.5682C121.161 13.5883 121.264 13.6002 121.356 13.6002Z" fill="#9EC2CC"/>
<path opacity="0.8" d="M109.836 26.4109C109.836 26.9402 109.407 27.3691 108.878 27.3691C108.348 27.3691 107.919 26.9402 107.919 26.4109C107.919 25.8818 108.348 25.4526 108.878 25.4526C109.407 25.4526 109.836 25.8818 109.836 26.4109Z" fill="white"/>
<path opacity="0.8" d="M127.567 38.193C127.567 38.7221 127.138 39.151 126.609 39.151C126.079 39.151 125.651 38.7221 125.651 38.193C125.651 37.6636 126.079 37.2347 126.609 37.2347C127.138 37.2347 127.567 37.6636 127.567 38.193Z" fill="white"/>
<path opacity="0.8" d="M131.752 16.8679C131.752 17.3973 131.323 17.8261 130.794 17.8261C130.265 17.8261 129.836 17.3973 129.836 16.8679C129.836 16.3388 130.265 15.9099 130.794 15.9099C131.323 15.9099 131.752 16.3388 131.752 16.8679Z" fill="white"/>
<path d="M109.835 18.4148C109.699 18.4148 109.563 18.3628 109.459 18.2588C109.251 18.0511 109.251 17.7141 109.459 17.5061L110.663 16.3016C110.871 16.0936 111.208 16.0936 111.416 16.3016C111.624 16.5096 111.624 16.8466 111.416 17.0543L110.211 18.2588C110.108 18.3628 109.971 18.4148 109.835 18.4148Z" fill="white"/>
<path d="M111.039 18.4148C110.903 18.4148 110.767 18.3628 110.663 18.2588L109.459 17.0543C109.251 16.8466 109.251 16.5096 109.459 16.3016C109.667 16.0936 110.004 16.0936 110.211 16.3016L111.416 17.5061C111.624 17.7141 111.624 18.0511 111.416 18.2588C111.312 18.3628 111.176 18.4148 111.039 18.4148Z" fill="white"/>
<path d="M117.463 34.56C117.327 34.56 117.191 34.508 117.087 34.404C116.879 34.196 116.879 33.859 117.087 33.651L118.291 32.4466C118.499 32.2388 118.836 32.2388 119.044 32.4466C119.252 32.6545 119.252 32.9915 119.044 33.1995L117.84 34.404C117.736 34.508 117.599 34.56 117.463 34.56Z" fill="white"/>
<path d="M118.668 34.56C118.532 34.56 118.395 34.508 118.291 34.404L117.087 33.1995C116.879 32.9915 116.879 32.6545 117.087 32.4466C117.295 32.2388 117.632 32.2388 117.84 32.4466L119.044 33.651C119.252 33.859 119.252 34.196 119.044 34.404C118.94 34.508 118.804 34.56 118.668 34.56Z" fill="white"/>
<path d="M133.186 26.4358C133.05 26.4358 132.913 26.3838 132.809 26.2798C132.601 26.0718 132.601 25.7348 132.809 25.5271L134.014 24.3226C134.222 24.1146 134.559 24.1146 134.766 24.3226C134.974 24.5303 134.974 24.8673 134.766 25.0753L133.562 26.2798C133.458 26.3835 133.322 26.4358 133.186 26.4358Z" fill="white"/>
<path d="M134.39 26.4358C134.254 26.4358 134.118 26.3838 134.014 26.2798L132.809 25.0753C132.601 24.8673 132.601 24.5303 132.809 24.3226C133.017 24.1146 133.354 24.1146 133.562 24.3226L134.766 25.5271C134.974 25.7348 134.974 26.0718 134.766 26.2798C134.663 26.3835 134.526 26.4358 134.39 26.4358Z" fill="white"/>
</g>
<path d="M74.4866 21.864C75.073 22.4511 75.8134 22.7447 76.7074 22.7447C77.6296 22.7447 78.3695 22.4511 78.9287 21.864C79.515 21.2489 79.8084 20.4941 79.8084 19.5995C79.8084 18.7328 79.515 17.9919 78.9287 17.3769C78.3695 16.7618 77.6296 16.4543 76.7074 16.4543C75.8134 16.4543 75.073 16.7618 74.4866 17.3769C73.8998 17.9919 73.6064 18.7328 73.6064 19.5995C73.6064 20.4941 73.8998 21.2489 74.4866 21.864Z" fill="#EB5E28"/>
<path d="M17.6544 21.864C18.2407 22.4511 18.9811 22.7447 19.8751 22.7447C20.7973 22.7447 21.5373 22.4511 22.0964 21.864C22.6827 21.2489 22.9761 20.4941 22.9761 19.5995C22.9761 18.7328 22.6827 17.9919 22.0964 17.3769C21.5373 16.7618 20.7973 16.4543 19.8751 16.4543C18.9811 16.4543 18.2407 16.7618 17.6544 17.3769C17.0676 17.9919 16.7742 18.7328 16.7742 19.5995C16.7742 20.4941 17.0676 21.2489 17.6544 21.864Z" fill="#EB5E28"/>
<defs>
<clipPath id="clip0_132_982">
<rect width="30.8966" height="32" fill="white" transform="translate(105 13)"/>
</clipPath>
</defs>
</svg>
