<?xml version="1.0" encoding="UTF-8"?>
<svg width="129px" height="25px" viewBox="0 0 129 25" version="1.1" xmlns="http://www.w3.org/2000/svg" xmlns:xlink="http://www.w3.org/1999/xlink">
    <title>filmix_ac_logo</title>
    <g id="Symbols" stroke="none" stroke-width="1" fill="none" fill-rule="evenodd">
        <g id="Logo-/-AC" transform="translate(0.000000, -17.000000)">
            <path d="M106,23 C109.313708,23 112,25.6862915 112,29 L112,42 L101,42 C97.6862915,42 95,39.3137085 95,36 L95,29 C95,25.6862915 97.6862915,23 101,23 L106,23 Z M129,23 L129,28 L121,28 C119.945638,28 119.081835,28.8158778 119.005486,29.8507377 L119,30 L119,35 C119,36.0543618 119.815878,36.9181651 120.850738,36.9945143 L121,37 L129,37 L129,42 L120,42 C116.686292,42 114,39.3137085 114,36 L114,29 C114,25.6862915 116.686292,23 120,23 L129,23 Z M105,28 L102,28 C100.945638,28 100.081835,28.8158778 100.005486,29.8507377 L100,30 L100,35 C100,36.0543618 100.815878,36.9181651 101.850738,36.9945143 L102,37 L107,37 L107,30 C107,28.8954305 106.104569,28 105,28 Z" id="co" fill="#F7F7F8"></path>
            <path d="M87.6,29.2 L90.9333333,31.7 C91.3751611,32.0313708 91.4647042,32.6581722 91.1333333,33.1 C91.0764791,33.1758057 91.009139,33.2431458 90.9333333,33.3 L87.6,35.8 C87.1581722,36.1313708 86.5313708,36.0418278 86.2,35.6 C86.0701779,35.4269038 86,35.2163702 86,35 L86,30 C86,29.4477153 86.4477153,29 87,29 C87.2163702,29 87.4269038,29.0701779 87.6,29.2 Z" id="Rectangle" fill="#F26739"></path>
            <path d="M56.994,21.988 L61.995,21.988 L61.995,17 L56.994,17 L56.994,21.988 Z M56.994,42 L61.995,42 L61.995,22.99 L56.994,22.99 L56.994,42 Z M76.427,32.465 L82.988,23.006 L77.715,23.006 L72.936,29.832 L68.156,23.006 L63.022,23.006 L69.629,32.465 L63.009,42 L68.143,42 L72.936,35.167 L77.729,42 L83.001,42 L76.427,32.465 Z M30.982,23.006 L30.982,42 L36.006,42 L36.006,28 L41.002,28 L41.002,42 L46.018,42 L46.018,28 L48.083,28 C48.899,28 49.593,28.287 50.168,28.859 C50.741,29.432 51.029,30.135 51.029,30.968 L51.029,42 L55.997,42 L55.997,28.943 C55.997,27.225 55.432,25.806 54.302,24.686 C53.172,23.567 51.769,23.006 50.093,23.006 L30.982,23.006 Z M24.976,42 L30.032,42 L30.032,17 L24.976,17 L24.976,42 Z M18.994,21.988 L23.994,21.988 L23.994,17 L18.994,17 L18.994,21.988 Z M18.994,42 L23.994,42 L23.994,22.99 L18.994,22.99 L18.994,42 Z M1.0658141e-13,22.945 L1.0658141e-13,42 L5.002,42 L5.002,33.017 L17.975,33.017 L17.975,27.989 L5.002,27.989 L5.002,24.999 C5.002,24.161 5.294,23.456 5.878,22.88 C6.462,22.304 7.161,22.017 7.973,22.017 L17.978,22.017 L17.978,17 L5.904,17 C4.228,17 2.825,17.561 1.695,18.682 C0.565,19.803 1.0658141e-13,21.225 1.0658141e-13,22.945 Z" id="filmix_logo" fill="#FFFFFF"></path>
        </g>
    </g>
</svg>