<svg xmlns="http://www.w3.org/2000/svg" style="enable-background:new 0 0 512 512" xml:space="preserve" viewBox="0 0 512 512"><path d="M400 0H112A112 112 0 0 0 0 112v288a112 112 0 0 0 112 112h288a112 112 0 0 0 112-112V112A112 112 0 0 0 400 0z" fill="#ff4b55" data-original="#ff4b55"/><path d="M398.5 296.2s-26.8-4.5-46.7-21A72.3 72.3 0 0 0 329 264c6.7-.3 13.8-.1 20.4 1.2 27.7 5.6 54.5-7.8 54.5-7.8s-27 2.7-50.5-8a68.7 68.7 0 0 0-22.7-4.8c5.8-1.7 12-3 18-3.3 28.2-1.6 50.8-21.3 50.8-21.3s-25.5 9.4-51 5a71.8 71.8 0 0 0-25 1.4 84.8 84.8 0 0 1 18.1-8.9c26.8-8.8 43.4-33.8 43.4-33.8s-22.1 15.8-47.8 18.2c-7.7.7-16.4 4.1-24.2 8 4.5-4.9 9.7-9.8 15.4-13.6 23.5-15.6 33-44.1 33-44.1s-17.2 21-41.4 30.1a69 69 0 0 0-19.6 12.8c3-5.3 6.4-10.7 10.5-15.2 18.8-21 20.8-51 20.8-51s-11.3 24.7-32.4 39.6a71.8 71.8 0 0 0-16.7 18.7c1.4-6.5 3.5-13.1 6.5-19.1 12.6-25.3 6.7-54.7 6.7-54.7s-4.4 26.9-21 46.8a72.3 72.3 0 0 0-11.3 22.6c-.3-6.6 0-13.7 1.3-20.4 5.6-27.7-7.9-54.5-7.9-54.5s2.8 27-8 50.6a68.7 68.7 0 0 0-4.7 22.6c-1.7-5.7-3-11.9-3.4-18-1.5-28.1-21.3-50.7-21.3-50.7s9.5 25.5 5 51a71.8 71.8 0 0 0 1.5 25 84.7 84.7 0 0 1-9-18.2c-8.8-26.8-33.8-43.4-33.8-43.4s15.8 22.2 18.2 47.9c.7 7.6 4.2 16.3 8.1 24.2-5-4.6-9.9-9.7-13.7-15.5-15.6-23.5-44-33-44-33s21 17.3 30 41.4a69 69 0 0 0 12.8 19.6c-5.3-3-10.6-6.4-15.2-10.5a95 95 0 0 0-51-20.8s24.7 11.4 39.6 32.5c4.4 6.1 11.5 11.9 18.7 16.7-6.4-1.5-13-3.5-19-6.5-25.3-12.7-54.7-6.8-54.7-6.8s26.8 4.5 46.7 21a72.3 72.3 0 0 0 22.7 11.3c-6.7.3-13.8.1-20.5-1.2-27.6-5.6-54.5 7.8-54.5 7.8s27.1-2.7 50.6 8a68.7 68.7 0 0 0 22.7 4.8c-5.8 1.7-12 3-18 3.3-28.2 1.6-50.8 21.3-50.8 21.3s25.5-9.4 51-5c7.4 1.3 16.5.3 25-1.4a84.7 84.7 0 0 1-18.1 8.9c-26.8 8.8-43.5 33.8-43.5 33.8s22.2-15.8 48-18.2c7.6-.7 16.3-4.1 24.1-8-4.5 4.9-9.7 9.8-15.4 13.6-23.5 15.6-33 44.1-33 44.1s17.2-21 41.4-30.1A69 69 0 0 0 211 317c-2.9 5.3-6.3 10.7-10.4 15.2a95 95 0 0 0-20.8 51s11.3-24.7 32.4-39.6A71.9 71.9 0 0 0 229 325c-1.5 6.5-3.5 13.1-6.5 19.1-12.7 25.3-6.7 54.7-6.7 54.7s4.4-26.9 21-46.8a72.3 72.3 0 0 0 11.2-22.6c.3 6.6.2 13.7-1.2 20.4a95 95 0 0 0 7.8 54.5s-2.7-27 8-50.6a68.7 68.7 0 0 0 4.8-22.6c1.7 5.7 3 11.9 3.3 18a95 95 0 0 0 21.4 50.7s-9.5-25.5-5-51c1.2-7.3.2-16.4-1.5-25a84.8 84.8 0 0 1 8.9 18.2 95 95 0 0 0 33.8 43.4s-15.8-22.2-18.1-47.9a72.6 72.6 0 0 0-8.1-24.2c5 4.6 9.9 9.7 13.7 15.5 15.6 23.5 44 33 44 33s-21-17.3-30.1-41.4a69.1 69.1 0 0 0-12.8-19.6c5.4 3 10.7 6.4 15.3 10.5 21 18.8 51 20.8 51 20.8s-24.8-11.4-39.7-32.5a71.8 71.8 0 0 0-18.6-16.7c6.4 1.5 13 3.5 19 6.5 25.3 12.7 54.7 6.8 54.7 6.8zM256 324.4a68.4 68.4 0 1 1 0-136.8 68.4 68.4 0 0 1 0 136.8z" fill="#ffe15a" data-original="#ffe15a"/><path d="M234.3 228.3c1.4-1.1 2.9-2.3 4.4-3.3a95.4 95.4 0 0 0-24.6-7.4c-1 1-1.8 2.2-2.7 3.3 6 1.1 14 3.4 22.9 7.4zM217 214.5c6.5.8 16 2.7 26.6 7.3l5.3-3a96 96 0 0 0-28.8-6.9l-3.1 2.6zm34.2 31.7a83.1 83.1 0 0 0-4.1-3.6c-12.8 12.2-24 30-29 55.7 1.7 1.7 3.6 3.4 5.6 4.7a95 95 0 0 1 27.5-56.8zm-5-11.3 4.4-3.4a94.6 94.6 0 0 0-5.3-3.1l-4.6 3.2a97 97 0 0 1 5.6 3.3zm35.4-3.3c11 9.7 21 23.2 28.2 42 1.8-5.5 3-11.4 3-17.6a56.7 56.7 0 0 0-9.6-31.8 88.4 88.4 0 0 0-21.6 7.4zm-30 7c1.5 1 2.9 2.2 4.3 3.4 1.4-1.2 2.8-2.4 4.2-3.4a93.3 93.3 0 0 0-4.2-3.4 94 94 0 0 0-4.3 3.4zM256 222a95 95 0 0 0-5.4 3 94 94 0 0 1 5.4 3 94.7 94.7 0 0 1 5.4-3 95 95 0 0 0-5.4-3zm-44.1 69.7c6-24.7 17.4-41.5 30.1-53.1a86 86 0 0 0-5.3-3.5 103.1 103.1 0 0 0-30.2 48.7 56.6 56.6 0 0 0 5.4 7.9zm18.3-60.2c-8.3-4-15.9-6.3-21.5-7.4A56.7 56.7 0 0 0 199 256c0 6.2 1.2 12 3 17.7a103.8 103.8 0 0 1 28.2-42zm25.8-16a98 98 0 0 1 31.2-7.2 56.7 56.7 0 0 0-62.5 0 98 98 0 0 1 31.3 7.3zm0 35.5a99.2 99.2 0 0 0-23.8 56.6 56.5 56.5 0 0 0 47.6 0c-3-26-12.5-44-23.8-56.6zm19.2-16a86.5 86.5 0 0 0-5.3 3.6c12.7 11.6 24.1 28.4 30.1 53a56.6 56.6 0 0 0 5.4-7.8c-6.8-22.4-18-38-30.2-48.7zm18.6 63.2c-5-25.8-16.2-43.5-29-55.7a84.1 84.1 0 0 0-4.2 3.6 95 95 0 0 1 27.5 56.8c2-1.4 3.9-3 5.7-4.7zM263 219a92 92 0 0 1 5.3 2.9c10.6-4.6 20-6.5 26.7-7.3l-3.2-2.6a96 96 0 0 0-28.8 7zm2.7 16a97 97 0 0 1 5.5-3.3l-4.5-3.2-5.4 3.1c1.5 1 3 2.2 4.4 3.4zm12-6.6c8.9-4 17-6.3 23-7.4-1-1.2-1.8-2.3-2.8-3.3-6.1.9-14.8 3-24.5 7.4l4.4 3.3z" fill="#ffe15a" data-original="#ffe15a"/></svg>