<?xml version="1.0" encoding="UTF-8"?>
<!-- Created with Inkscape (http://www.inkscape.org/) -->
<svg width="7.8677mm" height="7.8542mm" version="1.1" viewBox="0 0 7.8677 7.8542" xmlns="http://www.w3.org/2000/svg">
 <g transform="translate(-101.19 -144.72)">
  <circle cx="105.13" cy="148.66" r=".95666" fill="#008cd4"/>
  <path d="m106.97 149.98 1.065 1.1011c-0.77232 0.91005-1.9628 1.4664-3.1648 1.3462-1.9827-0.0168-3.7515-1.9161-3.531-3.9021-0.0854-1.0637 0.51594-2.0621 1.2788-2.7573 0.97898-0.89706 2.4353-1.112 3.6804-0.73834 0.15607 0.0584 0.43904 0.20935 0.57132 0.31102" fill="none" stroke="#008cd4" stroke-width=".26458px"/>
  <path d="m105.75 151.07c-0.53284-0.0124-1.0926 0.0396-1.5912-0.18655-0.17336-0.0565-0.31747-0.17676-0.46384-0.28096-0.20152-0.19809-0.40963-0.39516-0.58176-0.61854-0.0977-0.17151-0.21752-0.3337-0.24822-0.53347-0.0746-0.23449-0.0955-0.4824-0.12655-0.72469 0.0336-0.24667 0.0423-0.49991 0.0914-0.74246 0.10245-0.22543 0.17511-0.46758 0.33928-0.65836 0.14992-0.23032 0.38336-0.38778 0.57592-0.58031 0.14042-0.12949 0.31692-0.21669 0.48721-0.30086 0.14988-0.0699 0.30133-0.1342 0.46923-0.13893 0.33798-0.0621 0.68817-0.0494 1.0235 0.0161 0.19671 0.0712 0.39302 0.14328 0.56263 0.26899 0.27384 0.17531 0.51663 0.39469 0.77138 0.5961 0.32432-0.24203 0.64691-0.48639 0.97562-0.72246 0.17018 0.16561 0.36204 0.31272 0.47831 0.52429 0.15652 0.20244 0.26068 0.4393 0.3034 0.6915 0.0678 0.35272 0.11612 0.71232 0.0974 1.0725-4e-3 0.26635-0.0186 0.53013-0.064 0.79296" fill="none" stroke="#008cd4" stroke-width=".26458px"/>
 </g>
</svg>
