<svg clip-rule="evenodd" fill-rule="evenodd" image-rendering="optimizeQuality" shape-rendering="geometricPrecision" text-rendering="geometricPrecision" xml:space="preserve" xmlns="http://www.w3.org/2000/svg" viewBox="0 0 417 200"><path fill="#E42520" d="M.1.2h416.5v199.5H.1z"/><path fill="#FEFEFE" fill-rule="nonzero" d="M207 75.2h-30.3V48h95.8v27.2H242v76.6h-35V75.2zm113.2 79c-8.6 0-17-1-25.1-2.9-8.2-2-14.9-4.5-20.1-7.8l11.3-25.5a71.7 71.7 0 0 0 34.2 9.5c4.9 0 8.3-.5 10.4-1.4 2-1 3.1-2.3 3.1-4.2 0-2.2-1.3-3.8-4-5-2.8-1-7.2-2.2-13.5-3.5-8-1.7-14.7-3.5-20-5.4s-10-5-14-9.5c-3.9-4.4-5.9-10.3-5.9-17.9 0-6.5 1.8-12.4 5.5-17.8 3.7-5.3 9.1-9.5 16.4-12.6 7.3-3 16-4.6 26.5-4.6 7 0 14 .8 21 2.3a66 66 0 0 1 18.1 6.8L353.6 80a64.4 64.4 0 0 0-29-7.7c-9 0-13.4 2.2-13.4 6.6 0 2 1.3 3.6 4 4.6s7 2.2 13.2 3.4c7.9 1.5 14.6 3.2 20 5a35 35 0 0 1 14.2 9.5c4 4.4 6 10.3 6 17.8 0 6.5-1.9 12.4-5.5 17.7s-9.1 9.5-16.4 12.6c-7.3 3.2-16 4.7-26.5 4.7z"/><circle fill="#FEFEFE" cx="99" cy="99.8" r="51.9"/><path fill="#E42520" d="m138.7 99.9-30.4 17.6L77.8 135V64.8l30.5 17.6z"/></svg>