<?xml version="1.0" encoding="UTF-8"?>
<svg width="417px" height="200px" clip-rule="evenodd" fill-rule="evenodd" image-rendering="optimizeQuality" shape-rendering="geometricPrecision" text-rendering="geometricPrecision" version="1.1" viewBox="0 0 417 200" xml:space="preserve" xmlns="http://www.w3.org/2000/svg" xmlns:cc="http://creativecommons.org/ns#" xmlns:dc="http://purl.org/dc/elements/1.1/" xmlns:rdf="http://www.w3.org/1999/02/22-rdf-syntax-ns#"><metadata><rdf:RDF><cc:Work rdf:about=""><dc:format>image/svg+xml</dc:format><dc:type rdf:resource="http://purl.org/dc/dcmitype/StillImage"/><dc:title/></cc:Work></rdf:RDF></metadata>
  <rect fill="#E42520" x=".11" y=".17" width="416.54" height="199.54"/>
  <path fill="#FEFEFE" fill-rule="nonzero" d="m207.06 75.16h-30.41v-27.14h95.82v27.14h-30.41v76.68h-35v-76.68zm113.16 79.05c-8.6 0-16.98-0.96-25.14-2.89-8.15-1.93-14.85-4.52-20.09-7.79l11.27-25.51c4.94 2.87 10.48 5.17 16.61 6.9s12.01 2.59 17.65 2.59c4.84 0 8.31-0.47 10.38-1.4 2.08-0.94 3.12-2.35 3.12-4.23 0-2.18-1.36-3.81-4.08-4.9-2.72-1.08-7.19-2.27-13.42-3.56-8.01-1.68-14.69-3.48-20.03-5.41s-9.98-5.09-13.94-9.49c-3.95-4.4-5.93-10.36-5.93-17.87 0-6.53 1.83-12.46 5.49-17.8 3.65-5.34 9.12-9.54 16.39-12.61 7.26-3.06 16.09-4.6 26.47-4.6 7.12 0 14.11 0.77 20.99 2.3 6.87 1.54 12.92 3.78 18.17 6.75l-10.54 25.36c-10.18-5.14-19.82-7.71-28.92-7.71-8.99 0-13.49 2.18-13.49 6.53 0 2.07 1.33 3.63 4 4.67s7.07 2.15 13.2 3.34c7.91 1.48 14.59 3.18 20.02 5.11 5.44 1.93 10.16 5.07 14.17 9.42 4 4.35 6 10.28 6 17.8 0 6.52-1.82 12.43-5.48 17.72s-9.12 9.49-16.39 12.61c-7.27 3.11-16.09 4.67-26.48 4.67z"/>
  <circle fill="#FEFEFE" cx="99.02" cy="99.83" r="51.89"/>
  <polygon fill="#E42520" points="138.67 99.91 108.25 117.47 77.83 135.03 77.83 99.91 77.83 64.79 108.25 82.35"/>
</svg>
