<svg xml:space="preserve" xmlns="http://www.w3.org/2000/svg" viewBox="0 0 24 24"><path d="M18.8 0H5.2A5.2 5.2 0 0 0 0 5.3v13.4c0 3 2.4 5.3 5.3 5.3h13.4c3 0 5.3-2.4 5.3-5.3V5.3c0-3-2.4-5.3-5.3-5.3z" fill="#ff4b55" data-original="#ff4b55"/><path d="M18.7 13.9s-1.3-.2-2.2-1l-1-.5h.9c1.3.3 2.5-.3 2.5-.3s-1.2 0-2.3-.4l-1-.2.8-.2c1.3 0 2.3-1 2.3-1s-1.2.5-2.4.2l-1.1.1.8-.4c1.3-.4 2-1.6 2-1.6s-1 .7-2.2.9l-1.1.3.7-.6c1.1-.7 1.5-2 1.5-2s-.8 1-1.9 1.3l-1 .6.6-.7c.9-1 1-2.4 1-2.4S15 7.2 14 8c-.3.2-.5.5-.7.9l.3-1c.5-1.1.3-2.5.3-2.5s-.2 1.3-1 2.2l-.5 1v-.9c.3-1.3-.4-2.5-.4-2.5s.2 1.2-.3 2.3c-.2.3-.2.7-.3 1l-.1-.8c0-1.3-1-2.3-1-2.3s.4 1.2.2 2.4l.1 1.1a4 4 0 0 1-.4-.8c-.4-1.3-1.6-2-1.6-2s.7 1 .8 2.2c0 .3.2.7.4 1.1a4 4 0 0 1-.6-.7c-.7-1.1-2-1.6-2-1.6s1 .9 1.3 2l.6.9-.7-.5c-1-.9-2.4-1-2.4-1S7.2 9 8 10l.9.7a4 4 0 0 1-1-.3c-1.1-.6-2.5-.3-2.5-.3s1.3.2 2.2 1l1 .5a4 4 0 0 1-.9 0c-1.3-.3-2.6.3-2.6.3s1.3 0 2.4.4c.3.2.7.2 1 .2l-.8.2c-1.3 0-2.3 1-2.3 1s1.1-.4 2.3-.2l1.2-.1a4 4 0 0 1-.8.4c-1.3.4-2 1.6-2 1.6s1-.7 2.2-.9l1.1-.3a4 4 0 0 1-.7.6c-1.1.7-1.6 2-1.6 2s.8-1 2-1.3l.9-.6-.5.7c-.9 1-1 2.4-1 2.4S9 16.8 10 16c.3-.2.6-.5.8-.9l-.3 1c-.6 1.1-.3 2.5-.3 2.5s.2-1.3 1-2.2l.5-1v.9c-.3 1.3.3 2.6.3 2.6s-.1-1.3.4-2.4l.2-1 .2.8c0 1.3 1 2.3 1 2.3s-.5-1.2-.3-2.3v-1.2l.4.8c.4 1.3 1.6 2 1.6 2s-.8-1-.9-2.2l-.3-1.1.6.7c.7 1.1 2 1.6 2 1.6s-1-.8-1.4-2c0-.3-.3-.6-.5-.9l.7.5c1 .9 2.4 1 2.4 1S16.8 15 16 14l-.9-.7 1 .3c1.1.6 2.5.3 2.5.3zM12 15.2a3.2 3.2 0 1 1 0-6.4 3.2 3.2 0 0 1 0 6.4z" fill="#ffe15a" data-original="#ffe15a"/><path d="m11 10.7.2-.2-1.2-.3v.2l1 .3zm-.8-.6c.3 0 .7 0 1.2.3l.3-.1c-.6-.3-1-.3-1.4-.4l-.1.2zm1.6 1.4a3.9 3.9 0 0 0-.2-.1c-.6.5-1.1 1.4-1.4 2.6l.3.2c.2-1.2.7-2 1.3-2.7zm-.3-.5.3-.1-.3-.2-.2.2a4.5 4.5 0 0 1 .2.1zm1.7-.1c.5.4 1 1 1.3 2l.2-.9a2.7 2.7 0 0 0-.5-1.5l-1 .4zm-1.4.3.2.1.2-.1-.2-.2-.2.2zm.2-.8-.3.1a4.4 4.4 0 0 1 .3.2 4.4 4.4 0 0 1 .3-.2H12zm-2 3.3c.2-1.2.7-2 1.3-2.5a4 4 0 0 0-.2-.2c-.6.5-1.1 1.3-1.4 2.3a2.7 2.7 0 0 0 .2.4zm.8-2.8-1-.4a2.7 2.7 0 0 0-.5 1.5c0 .3 0 .6.2.8.3-.9.8-1.5 1.3-2zM12 10l1.5-.3a2.7 2.7 0 0 0-3 0c.4 0 1 0 1.5.3zm0 1.7c-.5.6-1 1.4-1.1 2.6a2.6 2.6 0 0 0 2.2 0c-.1-1.2-.6-2-1.1-2.6zm.9-.8a4 4 0 0 0-.2.2c.5.5 1 1.3 1.4 2.5a2.7 2.7 0 0 0 .2-.4c-.3-1-.8-1.8-1.4-2.3zm.9 3c-.3-1.2-.8-2-1.4-2.6a4 4 0 0 0-.2.1c.6.6 1.1 1.5 1.3 2.7l.3-.2zm-1.5-3.7.3.1 1.2-.3-.1-.2c-.4 0-.8.1-1.4.4zm.1.7a4.5 4.5 0 0 1 .3-.1l-.2-.2-.3.2.2.1zm.6-.3 1-.3v-.2l-1.2.3.2.2z" fill="#ffe15a" data-original="#ffe15a"/></svg>