<svg xml:space="preserve" xmlns="http://www.w3.org/2000/svg" viewBox="0 0 24 24"><g fill="#ffe15a" stroke-width=".1"><path d="M23.6 15.2s-2.2-.3-3.8-1.6c-.5-.4-1.2-.7-1.9-1l1.7.1c2.2.5 4.4-.6 4.4-.6s-2.2.2-4.1-.6c-.5-.3-1.2-.4-1.8-.4.4-.2 1-.3 1.4-.3 2.3-.1 4.1-1.7 4.1-1.7s-2 .7-4 .4h-2.1L19 9C21 8.2 22.5 6 22.5 6s-1.8 1.3-4 1.5c-.5 0-1.2.3-1.9.7A7 7 0 0 1 18 7.2c1.9-1.3 2.7-3.6 2.7-3.6S19.2 5.3 17.2 6l-1.6 1 .9-1.2c1.5-1.7 1.7-4.1 1.7-4.1s-1 2-2.7 3.2c-.5.4-1 1-1.3 1.5 0-.5.3-1 .5-1.5 1-2 .5-4.5.5-4.5s-.3 2.2-1.6 3.8c-.4.5-.7 1.2-1 1.9l.1-1.7c.5-2.2-.6-4.4-.6-4.4s.2 2.2-.6 4.1c-.3.5-.4 1.2-.4 1.8-.2-.4-.3-1-.3-1.4C10.7 2.2 9.1.4 9.1.4s.7 2 .4 4v2.1L9 5C8.2 3 6 1.5 6 1.5s1.3 1.8 1.5 4c0 .5.3 1.2.7 1.9A7 7 0 0 1 7.2 6C5.9 4.2 3.6 3.4 3.6 3.4S5.3 4.8 6 6.8l1 1.6-1.2-.9C4.1 6 1.7 5.8 1.7 5.8s2 1 3.2 2.7c.4.5 1 1 1.5 1.3-.5 0-1-.3-1.5-.5-2-1-4.5-.5-4.5-.5s2.2.3 3.8 1.6c.5.4 1.2.7 1.9 1l-1.7-.1c-2.2-.5-4.4.6-4.4.6s2.2-.2 4 .6c.6.3 1.3.4 2 .4l-1.5.3c-2.3.1-4.1 1.7-4.1 1.7s2-.7 4-.4h2.1L5 15C3 15.8 1.5 18 1.5 18s1.8-1.3 3.9-1.5c.6 0 1.3-.3 2-.7A7 7 0 0 1 6 16.8c-1.9 1.3-2.7 3.6-2.7 3.6s1.4-1.7 3.4-2.4l1.6-1-.9 1.2c-1.5 1.7-1.7 4.1-1.7 4.1s1-2 2.7-3.2c.5-.4 1-1 1.3-1.5L9.3 19c-1 2-.5 4.5-.5 4.5s.3-2.2 1.6-3.8c.4-.5.7-1.2 1-1.9l-.1 1.7c-.5 2.2.6 4.4.6 4.4s-.2-2.2.6-4c.3-.6.4-1.3.4-2l.3 1.5c.1 2.3 1.7 4.1 1.7 4.1s-.7-2-.4-4v-2.1L15 19c.7 2.1 2.8 3.5 2.8 3.5s-1.3-1.8-1.5-3.9c0-.6-.3-1.3-.7-2l1.1 1.3c1.3 1.9 3.6 2.7 3.6 2.7s-1.7-1.4-2.4-3.4l-1-1.6 1.2.9c1.7 1.5 4.1 1.7 4.1 1.7s-2-1-3.2-2.7c-.4-.5-1-1-1.5-1.3l1.5.5c2 1 4.5.5 4.5.5zM12 17.5a5.5 5.5 0 1 1 0-11 5.5 5.5 0 0 1 0 11z" data-original="#ffe15a"/><path d="m10.3 9.8.3-.3c-.8-.4-1.5-.5-2-.6l-.2.3c.5 0 1.1.2 1.9.6zM8.9 8.6l2.1.6.5-.2c-1-.4-1.8-.5-2.4-.6l-.2.2zm2.7 2.6a6.7 6.7 0 0 0-.3-.3c-1 1-2 2.4-2.3 4.5l.4.4a7.7 7.7 0 0 1 2.2-4.6zm-.4-1 .4-.2-.4-.2-.4.2a7.9 7.9 0 0 1 .4.3zm2.9-.2c.9.8 1.7 1.9 2.3 3.4l.2-1.4a4.6 4.6 0 0 0-.8-2.6l-1.7.6zm-2.4.6.3.3.4-.3-.4-.3-.3.3zm.3-1.4-.4.3a7.6 7.6 0 0 1 .4.2 7.7 7.7 0 0 1 .5-.2c-.2 0-.3-.2-.5-.3zM8.4 15c.5-2 1.5-3.4 2.5-4.3a7 7 0 0 0-.4-.3c-1 .9-2 2.1-2.5 4a4.6 4.6 0 0 0 .4.6zM10 10l-1.7-.6a4.6 4.6 0 0 0-.8 2.6l.2 1.4A8.4 8.4 0 0 1 10 10zM12 8.7a8 8 0 0 1 2.5-.6 4.6 4.6 0 0 0-5 0 8 8 0 0 1 2.5.6zm0 2.9a8 8 0 0 0-2 4.6 4.6 4.6 0 0 0 4 0 8 8 0 0 0-2-4.6zm1.6-1.3a7 7 0 0 0-.5.3c1 1 2 2.3 2.5 4.3a4.6 4.6 0 0 0 .4-.6c-.5-1.9-1.4-3.1-2.4-4zm1.5 5.1c-.4-2-1.3-3.5-2.4-4.5a6.8 6.8 0 0 0-.3.3c1 1 2 2.5 2.2 4.6l.5-.4zM12.6 9l.4.2 2.2-.6-.3-.2c-.6 0-1.4.2-2.3.6zm.2 1.3a7.9 7.9 0 0 1 .4-.3l-.3-.2-.5.2.4.3zm1-.5c.7-.4 1.3-.6 1.8-.6l-.2-.3c-.5 0-1.2.2-2 .6l.4.3z" data-original="#ffe15a"/></g></svg>